<svg xmlns="http://www.w3.org/2000/svg" width="497.601" height="196.792" viewBox="0 0 497.601 196.792">
  <g id="layer1" transform="translate(134.51 -137.102)">
    <g id="g857" transform="translate(90.133 -50.242)">
      <path id="path819" d="M195.277,223.748c-22.863,0-37.623.352-58.395.886H-12.859L-21.142,254.7H-6.913c3.882,0,7.008,3.393,7.008,7.607s-3.126,7.606-7.008,7.606h-18.42L-28.7,282.149H-123.72c-7.117,0-12.847,6.22-12.847,13.945s5.73,13.945,12.847,13.945h87.331l-3.5,12.7H-24.9c6.47,0,11.678,5.654,11.678,12.678S-18.433,348.1-24.9,348.1H-46.873l-7.829,28.42h52.57l16.092-59.295h91.195L113.38,287.8H22.187l9.3-33.524h98.7c20.264-.136,27.472.043,43.444-.3,0,0,40.832-.8,38.2,4.323a44.932,44.932,0,0,1-.789,4.436l-3.156,11.273c-2.76,9.394-7.489,13.857-26.41,13.857H127.865l-8.277,27.949h55.188c16.556,0,22.47,2.818,22.47,8.924a20.308,20.308,0,0,1-.789,4.228l-3.156,10.1c-2.76,9.629-6.307,13.623-39.814,13.623a322.922,322.922,0,0,1-56.37-5.4l-11.826,24.9c17.739,5.167,49.67,7.985,69.774,7.985h0c70.562,0,84.753-13.387,92.637-37.813l3.55-11.038a28.351,28.351,0,0,0,1.18-8.22c0-11.038-8.278-17.146-24.834-21.843,28.777-5.167,32.718-15.736,36.66-29.593l3.546-12.683a21.993,21.993,0,0,0,1.185-7.046c0-17.145-20.891-28.183-73.713-28.183Z" fill="#212a4f" stroke="rgba(43,42,233,0.98)" stroke-width="7.937"/>
      <rect id="rect873" width="92.226" height="21.167" rx="10.583" transform="translate(-156.789 323.458)" fill="#212a4f" stroke="rgba(43,42,233,0.98)" stroke-dashoffset="67.751" stroke-width="7.938"/>
      <rect id="rect875" width="69.791" height="17.45" rx="8.725" transform="translate(-106.508 246.939)" fill="#212a4f" stroke="rgba(43,42,233,0.98)" stroke-dashoffset="67.751" stroke-width="7.938"/>
      <rect id="rect887" width="69.791" height="17.45" rx="8.725" transform="translate(-220.674 267.287)" fill="#212a4f" stroke="rgba(43,42,233,0.98)" stroke-dashoffset="67.751" stroke-width="7.938"/>
      <rect id="rect889" width="69.791" height="17.45" rx="8.725" transform="translate(-189.538 357.854)" fill="#212a4f" stroke="rgba(43,42,233,0.98)" stroke-dashoffset="67.751" stroke-width="7.938"/>
      <rect id="rect891" width="69.791" height="17.45" rx="8.725" transform="translate(-12.86 191.313)" fill="#212a4f" stroke="rgba(43,42,233,0.98)" stroke-dashoffset="67.751" stroke-width="7.938"/>
    </g>
    <path id="path821" d="M170.2,326.8l38.92,1.393,35.935-152.182-36.421-.583L148.346,203.1l12.89,24.824,34.816-13.772Z" fill="#fff" stroke="#2b2ae7" stroke-width="6.492"/>
  </g>
</svg>
